<?xml version="1.0" encoding="UTF-8"?>
<svg xmlns="http://www.w3.org/2000/svg" xmlns:xlink="http://www.w3.org/1999/xlink" viewBox="0 0 1309.47 368.64">
  <defs>
    <style>
      .cls-1 {
        fill: #fff;
        stroke-width: 3px;
      }

      .cls-1, .cls-2, .cls-3, .cls-4, .cls-5, .cls-6, .cls-7, .cls-8, .cls-9, .cls-10 {
        stroke-miterlimit: 10;
      }

      .cls-1, .cls-7 {
        stroke: #ccc;
      }

      .cls-2 {
        fill: #bc8e68;
      }

      .cls-2, .cls-4, .cls-5, .cls-6, .cls-8, .cls-9, .cls-10 {
        stroke: #fff;
        stroke-width: 4px;
      }

      .cls-3 {
        stroke: #fbff66;
        stroke-width: 3.5px;
      }

      .cls-3, .cls-7 {
        fill: none;
      }

      .cls-4 {
        fill: #57c486;
      }

      .cls-5 {
        fill: #c69c6d;
      }

      .cls-6 {
        fill: #5778c1;
      }

      .cls-7 {
        stroke-width: .5px;
      }

      .cls-8 {
        fill: #1fb082;
      }

      .cls-9 {
        fill: #f29ff4;
      }

      .cls-10 {
        fill: url(#_名称未設定グラデーション_21);
      }
    </style>
    <linearGradient id="_名称未設定グラデーション_21" data-name="名称未設定グラデーション 21" x1="601.55" y1="230.04" x2="601.55" y2="96.13" gradientUnits="userSpaceOnUse">
      <stop offset="0" stop-color="#57c486"/>
      <stop offset=".33" stop-color="#58c188"/>
      <stop offset=".49" stop-color="#5dba90"/>
      <stop offset=".63" stop-color="#65ae9d"/>
      <stop offset=".74" stop-color="#709cb0"/>
      <stop offset=".85" stop-color="#7f86c9"/>
      <stop offset=".94" stop-color="#906ae7"/>
      <stop offset="1" stop-color="#9f55ff"/>
    </linearGradient>
    <image id="image" width="256" height="256" xlink:href="../../../../../../Users/碧波/Downloads/8分音符アイコン 1.png"/>
  </defs>
  <g id="_レイヤー_1" data-name="レイヤー 1">
    <g>
      <path class="cls-2" d="m517.37,165.53c1.01.6,1.41,1.88.9,2.94-11.2,23.38-26.17,42.31-44.9,56.77-19.24,14.85-41.45,25.93-66.62,33.22-24.68,7.15-52.85,11.94-84.54,14.37-1.09.08-2.1-.63-2.37-1.69-1.22-4.77-2.99-10.18-5.33-16.23-.79-2.03-1.57-3.95-2.36-5.75-2.28-5.25,1.44-11.14,7.15-11.45,20.56-1.12,39.05-3.37,55.48-6.75,11.63-2.39,15.08-17.39,5.69-24.65-.93-.72-1.88-1.45-2.84-2.17-3.79-2.87-8.78-3.62-13.24-1.98-8.22,3.02-16.61,5.84-25.18,8.47-1.08.33-2.25-.19-2.72-1.21-1.93-4.16-4.7-8.93-8.31-14.3-3.09-4.59-6.01-8.39-8.77-11.39-1.17-1.27-.51-3.32,1.17-3.72,2.74-.65,5.45-1.33,8.11-2.03,7.9-2.07,5.37-13.83-2.68-12.44-6.11,1.06-12.37,2.01-18.76,2.87-1.08.14-2.12-.5-2.46-1.53-1.5-4.6-3.47-9.7-5.92-15.3-2.09-4.78-4.19-8.88-6.31-12.3-.89-1.44.05-3.29,1.74-3.44,19.98-1.8,38.78-4.9,56.4-9.31,9.14-2.29,11.28-14.32,3.55-19.7-1.33-.93-2.7-1.86-4.1-2.79-2.97-1.97-6.72-2.37-10.04-1.08-7.35,2.85-13.86,5.18-19.52,6.99-1.02.33-2.13-.11-2.65-1.05-2.25-4.04-5.4-8.64-9.44-13.79-3.37-4.29-6.5-7.85-9.41-10.69-1.26-1.23-.68-3.38,1.03-3.81,20.33-5.13,38.08-11.66,53.26-19.59,15.68-8.2,28.41-17.27,38.18-27.21.58-.59,1.43-.82,2.23-.59l34.45,9.78c1.69.48,2.22,2.61.95,3.82-.93.89-2.09,1.99-3.47,3.3s-.56,3.78,1.42,3.91l37.45,2.38c.19.01.39,0,.58-.04l4.78-.93c.58-.11,1.19,0,1.68.34l20.53,13.59c1.02.68,1.33,2.06.68,3.1-12.83,20.42-30.1,37.62-51.81,51.62-1.63,1.05-1.28,3.52.57,4.07l23.06,6.92c1.64.49,2.16,2.57.95,3.79-3.18,3.18-6.18,6.08-9,8.69-1.49,1.38-.55,3.87,1.48,3.92l36.53,1c.38.01.76.12,1.09.31l21.69,12.74Zm-144.12-78.44l-.08.05c12.36,6.58,21.92,12.56,28.7,17.93.76.6,1.81.67,2.63.16,9.3-5.81,17.39-11.83,24.25-18.07,1.56-1.42.51-4.01-1.6-3.95-14.44.45-50.54,1.77-53.9,3.87Zm33.56,96.76l-.1.06c14.2,8.3,24.59,15.33,31.19,21.09.79.69,1.96.74,2.81.13,9.32-6.72,17.17-14.14,23.56-22.26,1.19-1.51.05-3.73-1.87-3.66-13.47.49-51.3,2.07-55.58,4.64Z"/>
      <path class="cls-4" d="m811.44,118.36c-5.37.09-9.77-4.22-9.77-9.59v-20.82c0-1.25-1.02-2.27-2.27-2.27h-25.39c-5.62,0-10.06-4.82-9.55-10.42.5-5.6.92-11.3,1.25-17.09.07-1.3-.97-2.4-2.27-2.4h-32.68c-1.18,0-2.16.9-2.26,2.08-.11,1.35-.28,3.35-.51,6-.29,3.46-.69,7.84-1.19,13.12-.46,4.92-4.6,8.7-9.55,8.7h-26.19c-1.25,0-2.27,1.02-2.27,2.27v33.71c0,1.25,1.02,2.27,2.27,2.27h19.28c5.86,0,10.34,5.2,9.49,10.99-2.7,18.29-6.18,38.24-10.43,59.86-4.93,25.06-7.97,36.37-15.07,60.89-.42,1.45.67,2.91,2.18,2.91h37.93c.18,0,1.7-6.1,4.58-18.31,2.87-12.22,3.21-14.32,7.7-36.6,4.08-20.24,7.94-44.04,11.58-71.4.64-4.77,4.7-8.33,9.51-8.33h7.27c5.21,0,9.46,4.16,9.59,9.35l.52,22.05c.03,1.25,1.08,2.24,2.33,2.21,20.47-.5,36.69-.71,48.64-.62,11.45.09,22.07.36,31.84.82,1.29.06,2.37-.97,2.37-2.26v-34.98c0-1.24-.99-2.25-2.22-2.27-17.35-.27-36.24-.23-56.7.12Z"/>
      <path class="cls-5" d="m865.07,213.88c1.71,0,2.62,1.78,1.49,2.91-4.46,4.44-8.94,8.57-13.18,12.32-5.16,4.54-11.7,9.56-18.78,14.83-7.42,5.69-14.19,8.92-20.32,9.7-6.13.76-11.07-.22-15.63-2.72-4.58-2.5-8.45-5.87-11.6-10.13-3.45-4.83-5.76-9.18-6.95-13.02-1.04-3.37-1.83-7.42-2.64-12.08-.18-1.06.75-2.02,1.97-2.02l85.64.21Z"/>
      <path class="cls-4" d="m951.39,67.47l18.56,3.2c5.82,1,9.8,6.35,8.74,11.75-.07.34-.13.68-.2,1.04-1.37,6.97-1.43-.91-3.36,9.94-1.93,10.85-3.89,22.24-5.89,34.18-2,11.94-3.81,22.94-5.44,32.99-1.89,13.06-2.75,23.75-2.6,32.08.15,8.17,2.32,12.94,6.5,14.31.16.05.32.09.49.11,4.91.63,36.3,1.56,35.77,5.19l-4.05,34.71c-.63,4.36-31.78.31-41.13-.85-15.48-1.92-26.13-9.21-31.8-23.15-5.68-13.94-6.64-33.89-2.89-59.84,1.53-10.58,3.27-22.35,5.23-35.31,1.96-12.96,3.94-25.41,5.94-37.35,1.99-11.94,2.1-4.99,3.49-12.72.15-.81.28-1.59.42-2.32.98-5.44,6.4-8.96,12.24-7.95Zm97.43,29.19c-1.02-6.14,4.46-11.2,10.95-10.12l27.71,4.62c.17.03,1.11,7,2.82,20.91,1.7,13.91,2.64,32.35,2.83,55.32.18,22.55-2.71,32.38-8.8,73.38-.19,1.25-1.37,2.12-2.62,1.91l-35.53-5.92c-1.23-.21-2.07-1.37-1.87-2.6.15-.92.34-2.11.58-3.58.58-3.54,1.78-12.27,3.6-26.19,1.82-13.92,3.01-7.33,3.69-24.15.68-16.81.68-33.53-.02-50.15-.5-11.83-1.62-22.98-3.36-33.43Z"/>
      <path class="cls-4" d="m1284.13,155.44c-13.56-10.02-31.38-14.34-53.47-12.96-4.68.52-9.48,1.39-14.42,2.6-.11.02-.22.05-.33.08-5.11,1.26-9.33-3.92-6.8-8.37,2.05-3.6,3.76-6.71,5.11-9.32,1.58-3.03,4.8-4.94,8.33-4.94h-59.82c4.86,0,8.07,4.86,6,9.09-3.55,7.26-8.67,17.28-15.34,30.04-3.39,6.49-5.17,13.66-5.17,20.93v12.02c0,6.98,7.92,11.32,14.13,7.72,9.94-5.76,19.02-10.42,27.22-13.98,11.95-5.19,24.56-8.38,37.85-9.59,13.83-1.04,23.66.43,29.5,4.4,5.84,3.98,8.66,9.5,8.49,16.59.17,5.35-1.22,10.19-4.18,14.51-2.96,4.31-8.08,7.81-15.35,10.49-7.28,2.68-18.19,3.93-32.73,3.76-13.99-.17-31.79-2.01-53.4-5.53-1.38-.22-2.64.84-2.64,2.24v35.53c0,1.13.83,2.08,1.94,2.25,31.86,4.75,59.23,5.65,82.11,2.69,23.35-3.03,39.91-10.72,49.7-23.06,9.79-12.35,14.59-26.56,14.42-42.63-.54-19.69-7.59-34.54-21.15-44.56Zm-49.2-82.12c.42-1.17.84-2.34,1.25-3.51,1.19-3.45,2.42-6.98,3.67-10.59.51-1.48-.58-3.02-2.14-3.02h-39.05c-.98,0-1.84.62-2.15,1.55-.4,1.21-1.05,3.11-1.95,5.71-1.17,3.38-2.86,7.71-5.07,12.99-1.63,3.89-5.56,6.44-9.92,6.44h62.36c-5.15,0-8.71-4.9-7-9.57Z"/>
      <path class="cls-1" d="m1307.97,85.16v35.11c0,1.25-1.02,2.26-2.27,2.26h-172.18c-1.25,0-2.27-1.01-2.27-2.26v-35.11c0-1.25,1.02-2.27,2.27-2.27h172.18c1.25,0,2.27,1.02,2.27,2.27Z"/>
      <path d="m1150.14,84.38v17.95c0,1.61-1.02,2.92-2.29,2.92h-2.94c-1.27,0-2.31-1.31-2.31-2.92v-17.95s7.54,0,7.54,0Z"/>
      <path d="m1165.12,84.38v17.95c0,1.61-1.02,2.92-2.3,2.92h-2.93c-1.28,0-2.31-1.31-2.31-2.92v-17.95s7.54,0,7.54,0Z"/>
      <path d="m1177.94,105.24h-2.94c-1.27,0-2.31-1.31-2.31-2.92v-17.95s7.55,0,7.55,0v17.95c0,1.61-1.02,2.92-2.3,2.92Z"/>
      <path d="m1205.81,105.24h-2.94c-1.27,0-2.31-1.31-2.31-2.92v-17.95s7.55,0,7.55,0v17.95c0,1.61-1.02,2.92-2.3,2.92Z"/>
      <path d="m1221.04,105.24h-2.94c-1.27,0-2.31-1.31-2.31-2.92v-17.95s7.55,0,7.55,0v17.95c0,1.61-1.02,2.92-2.3,2.92Z"/>
      <path d="m1248.14,105.24h-2.94c-1.27,0-2.31-1.31-2.31-2.92v-17.95s7.55,0,7.55,0v17.95c0,1.61-1.02,2.92-2.3,2.92Z"/>
      <path d="m1262,105.24h-2.94c-1.27,0-2.31-1.31-2.31-2.92v-17.95s7.55,0,7.55,0v17.95c0,1.61-1.02,2.92-2.3,2.92Z"/>
      <path d="m1276.05,105.24h-2.94c-1.27,0-2.31-1.31-2.31-2.92v-17.95s7.55,0,7.55,0v17.95c0,1.61-1.02,2.92-2.3,2.92Z"/>
      <path d="m1300.76,105.24h-2.94c-1.27,0-2.31-1.31-2.31-2.92v-17.95s7.55,0,7.55,0v17.95c0,1.61-1.02,2.92-2.3,2.92Z"/>
      <line class="cls-7" x1="1146.42" y1="105.24" x2="1146.42" y2="122.53"/>
      <line class="cls-7" x1="1161.39" y1="105.24" x2="1161.39" y2="122.53"/>
      <line class="cls-7" x1="1176.51" y1="105.24" x2="1176.51" y2="122.53"/>
      <line class="cls-7" x1="1204.39" y1="105.24" x2="1204.39" y2="122.53"/>
      <line class="cls-7" x1="1219.61" y1="105.24" x2="1219.61" y2="122.53"/>
      <line class="cls-7" x1="1246.71" y1="105.24" x2="1246.71" y2="122.53"/>
      <line class="cls-7" x1="1260.57" y1="105.24" x2="1260.57" y2="122.53"/>
      <line class="cls-7" x1="1274.62" y1="105.24" x2="1274.62" y2="122.53"/>
      <line class="cls-7" x1="1299.33" y1="105.24" x2="1299.33" y2="122.53"/>
      <line class="cls-7" x1="1190.62" y1="82.89" x2="1190.62" y2="122.53"/>
      <line class="cls-7" x1="1231.39" y1="82.89" x2="1231.39" y2="122.53"/>
      <line class="cls-7" x1="1287.68" y1="82.89" x2="1287.68" y2="122.53"/>
    </g>
    <path class="cls-8" d="m283.61,59.35v28.89c0,1.25-1.01,2.26-2.26,2.27l-47.9.12c-1.09,0-2.03-.78-2.23-1.86l-1.96-10.47c-.45-2.4-3.85-2.5-4.43-.12l-4.74,19.42c-.54,2.24-3.71,2.32-4.37.11l-7.66-25.58c-.57-1.92-3.03-2.12-4.03-.66-.14.21-.26.46-.33.74l-6.54,25.36c-.59,2.29-3.85,2.26-4.41-.03l-7.64-31.73-3.18-13.21c-.57-2.34-3.9-2.31-4.42.04l-2.92,13.17-5.46,24.69v.26l-52.14.09c-1.09,0-2.03-.77-2.23-1.84l-2.03-10.77c-.45-2.39-3.85-2.48-4.43-.11l-4.76,19.47c-.54,2.25-3.71,2.33-4.37.11l-7.38-24.65c-.59-1.98-3.13-2.12-4.09-.59-.14.23-.25.49-.31.79l-7.01,35.1c-.48,2.43-3.96,2.43-4.45,0l-8.47-42.55-2.44-12.23c-.48-2.42-3.92-2.44-4.44-.04l-2.66,12.28-4.95,22.89c-.23,1.05-1.15,1.79-2.22,1.79H4.26c-1.25,0-2.26-1.02-2.26-2.27v-28.92c0-1.25,1.01-2.27,2.26-2.27h39.46c1,0,1.89-.66,2.17-1.63L61.08,3.63c.66-2.24,3.85-2.15,4.38.11l10.91,46.09c.55,2.32,3.84,2.33,4.41.01l6.15-25.24c.56-2.26,3.75-2.32,4.39-.08l8.65,30.46c.64,2.22,3.8,2.18,4.38-.06l4.46-17.25c.59-2.27,3.83-2.26,4.4.02l4.51,18.1c.25,1.02,1.16,1.73,2.21,1.72l41.34-.11c1.01,0,1.91-.68,2.18-1.66l14.24-51.78c.62-2.27,3.86-2.21,4.4.08l10.83,45.79c.55,2.32,3.85,2.33,4.41.01l6.16-25.24c.55-2.26,3.74-2.32,4.38-.08l8.66,30.46c.63,2.22,3.79,2.18,4.37-.06l4.39-16.96c.6-2.3,3.87-2.26,4.41.05l4.21,18.08c.24,1.04,1.18,1.77,2.24,1.75l45.16-.76c1.26-.02,2.3,1,2.3,2.27Z"/>
    <path class="cls-4" d="m173.36,138.27l63.16-2.42c6.18-.24,10.14,6.5,6.92,11.77-11.22,18.41-26.98,42.64-39.76,57.05-11.91,13.43-24.4,25.84-37.47,37.23-4.67,4.07-1.81,11.78,4.39,11.76,6.5-.01,13.54-.23,21.12-.65l16.87-.93c26.2-1.44,46.9-2.79,62.09-4.05,1.73-.14,2.98,1.63,2.25,3.2-1.67,3.6-3.28,8.05-4.81,13.36-1.85,6.41-3.1,12.15-3.74,17.21-.14,1.08-1.03,1.9-2.12,1.96l-70.94,3.89c-25.05,1.37-45.87.51-62.44-2.6-9.97-1.87-19.08-5.06-27.34-9.59-8.73-4.78-19.67-1.79-24.48,6.92-2.34,4.23-4.66,8.22-6.96,11.97-.63,1.02-1.94,1.36-3,.8l-30.52-16.28c-1.26-.67-1.59-2.31-.69-3.42,6.6-8.14,12.98-19.3,19.73-31.47,4.79-8.63,12.5-22.41,16.72-33.58.45-1.19,1.78-1.77,2.96-1.3l28.93,11.56c1.19.48,1.75,1.85,1.23,3.03h0c-2.58,5.82-1.04,12.56,3.61,16.7.77.69,1.93.73,2.78.14l6.78-4.71c13.5-9.29,18.58-14.38,31.32-26.79,4.84-4.72,9.45-9.44,13.81-14.17,7.82-8.48,1.37-22.17-10.15-21.54l-97.28,5.34c-1.25.07-2.32-.89-2.39-2.14l-1.62-29.47c-.07-1.25.89-2.32,2.14-2.39l65.35-3.59c5.01-.27,8.84-4.56,8.57-9.57l-.85-15.51c-.07-1.25.89-2.32,2.14-2.39l32.28-1.77c1.25-.07,2.32.89,2.39,2.14l.93,16.92c.23,4.25,3.83,7.52,8.08,7.36Z"/>
    <path class="cls-10" d="m636.6,97.07l-25.84,7.2-2.42,8.4,16.48-3.35-10.15,20.44c-3.84-1.72-8.11-2.68-12.6-2.68-5.42,0-10.51,1.39-14.93,3.85l-5.14-8.47,11.03-6.69-4.3-7.1-11.04,6.7-6.61-10.9,15.72.14-2.41-6.9-24.95-1.58-10.09,22.85,4.8,5.44,7.38-14.05,6.57,10.83-10.32,6.26,4.31,7.1,10.32-6.27,5.97,9.85c-4.49,5.36-7.19,12.28-7.19,19.83,0,15.19,10.97,27.83,25.44,30.4v13.47h-12.07v11.04h12.06v17.16h11.23v-17.16h12.9v-11.04h-12.9v-13.53c14.31-2.71,25.1-15.27,25.1-30.34,0-8.48-3.42-16.18-8.95-21.76l11.56-23.29,13.22,14,4.98-7.23-17.16-22.62Zm-34.53,79.58c-10.32,0-18.68-8.37-18.68-18.68s8.36-18.69,18.68-18.69,18.68,8.37,18.68,18.69-8.36,18.68-18.68,18.68Z"/>
    <g>
      <path class="cls-4" d="m98.38,339.92c2.95,1.48,7.72,3.01,12.58,3.01,4.45,0,6.64-1.55,6.64-4,0-2.32-2.18-3.69-7.67-5.56-8.17-2.9-13.63-7.42-13.63-14.64,0-8.59,7.24-15.17,19.5-15.17,5.8,0,9.94,1.08,13.12,2.48l-2.72,10.39c-2.09-.92-5.69-2.3-10.55-2.3-3.96,0-6.14,1.46-6.14,3.58,0,2.47,2.57,3.46,8.69,5.74,8.75,3.2,12.66,7.88,12.66,14.63,0,8.39-6.52,15.52-20.68,15.52-5.85,0-11.52-1.53-14.27-2.95l2.47-10.73Z"/>
      <path class="cls-4" d="m170.46,304.39v17.95h15.77v-17.95h13v48.53h-13v-19.24h-15.77v19.24h-13v-48.53h13Z"/>
      <path class="cls-4" d="m237.31,304.39v48.53h-13v-48.53h13Z"/>
      <path class="cls-4" d="m263.58,304.89c2.93-.54,9.34-1.04,15.34-1.04,6.86,0,11.02.49,14.8,2.38,3.78,1.76,6.53,5.26,6.53,9.99,0,4.09-2.23,8.06-7.87,10.19v.18c5.94,1.6,9.5,6.01,9.5,11.77,0,4.57-2.21,8.16-5.44,10.58-3.65,2.74-9.68,4.36-20.09,4.36-5.87,0-10.17-.38-12.78-.79v-47.61Zm12.87,18.02h2.61c5.49,0,8.15-1.94,8.15-5.08,0-2.84-2.16-4.64-6.52-4.64-2.18,0-3.4.13-4.25.29v9.43Zm0,20.72c.95.14,2.07.14,3.74.14,4.32,0,8.01-1.73,8.01-6s-3.76-5.69-8.64-5.69h-3.11v11.54Z"/>
      <path class="cls-4" d="m339.62,341.67l-2.74,11.25h-13.45l14.08-48.53h17.32l14.47,48.53h-14.04l-3.1-11.25h-12.55Zm10.77-9.59l-2.25-8.73c-.74-2.74-1.66-6.7-2.41-9.56h-.14c-.72,2.86-1.44,6.86-2.14,9.61l-2.09,8.68h9.04Z"/>
      <path class="cls-4" d="m398.53,315.3h-12.37v-10.91h37.97v10.91h-12.6v37.62h-13v-37.62Z"/>
      <path class="cls-4" d="m457.99,340.88l-2.74,11.25h-13.45l14.08-48.53h17.32l14.47,48.53h-14.04l-3.1-11.25h-12.55Zm10.77-9.59l-2.25-8.73c-.74-2.74-1.66-6.7-2.41-9.56h-.14c-.72,2.86-1.44,6.86-2.14,9.61l-2.09,8.68h9.04Z"/>
    </g>
    <g>
      <path class="cls-4" d="m876.27,321.77h-12.37v-10.91h37.96v10.91h-12.6v37.62h-13v-37.62Z"/>
      <path class="cls-4" d="m945.01,360.58l-.78-3.53h-.29c-2.8,3.22-6.8,4.43-11.12,4.43-8.21,0-13.29-5.92-13.29-12.61,0-10.78,9.67-15.57,23.33-15.59v-.37c0-1.65-1.25-3.43-6.59-3.43-4.25,0-8.72,1.51-11.33,3l-2.57-9.33c2.57-1.37,8.31-3.63,16.61-3.63,13.84,0,18.59,7.69,18.59,17.72v13.57c0,4,.22,7.74.65,9.78h-13.23Zm-1.67-15.06c0-1.88-1.69-3.32-3.55-3.04-3.77.58-5.84,2.19-5.84,4.94,0,2.57,1.67,3.88,4.16,3.88,2.1,0,4.37-1.49,5.04-3.71.16-.59.18-1.35.18-2.06h0Z"/>
      <path class="cls-9" d="m1001.61,312.56c.02,3.67-2.73,6.54-7.14,6.54s-6.97-2.88-6.95-6.54c-.02-3.78,2.74-6.56,7.04-6.56s6.99,2.78,7.04,6.56Zm-7.11,49.14l-10.86-36.27h21.84l-10.99,36.27Z"/>
      <path class="cls-4" d="m1051.1,359.44c-2.11.95-5.8,1.48-9.74,1.48-11.77,0-19.19-6.89-19.19-18.15,0-10.12,6.93-18.79,20.77-18.79,2.54,0,5.63.34,8.17,1.19l-1.84,9.56c-1.22-.49-2.95-.88-5.58-.88-4.86,0-8.3,3.31-8.25,8.44,0,5.78,3.98,8.55,8.57,8.55,2.21,0,4.05-.27,5.69-.92l1.39,9.52Z"/>
      <path class="cls-4" d="m1078.87,310.86h13l-.21,12.72c-.02,1.28,1.08,2.32,2.35,2.18,2.64-.29,6.51.03,7.54,0,7.99-.19,12.44,5.71,12.44,15.73v20.49h-13v-19.06c0-4.21-1.37-6.71-4.63-6.71-2.39,0-3.58,1.42-4.18,2.81-.25.56-.32,1.49-.32,2.12v20.85h-13v-51.12Z"/>
      <path class="cls-6" d="m1151.73,315.34c.02,3.44-2.56,6.14-6.7,6.14s-6.54-2.7-6.52-6.14c-.02-3.55,2.57-6.16,6.61-6.16s6.55,2.61,6.61,6.16Z"/>
    </g>
    <polygon class="cls-6" points="1145.19 325.52 1155.37 361.07 1134.88 360.82 1145.19 325.52 1145.19 325.52"/>
    <path class="cls-3" d="m282.13,73.35l-45.51-.05c-1.52,0-2.86-1.01-3.28-2.47l-4.91-16.98c-.34-1.14-1.94-1.16-2.32-.03l-6.67,24.48c-.55,1.58-2.8,1.53-3.28-.07l-8.28-33.85c-.56-1.56-2.78-1.52-3.27.07l-9.4,34.84c-.09.3-.52.3-.6,0l-13.48-50.15c-.55-2.05-3.45-2.07-4.03-.03l-11.81,41.79c-.59,2.08-2.5,3.52-4.67,3.5l-39.26-.32c-1.66-.01-3.12-1.09-3.62-2.67l-4.8-15.12c-.46-1.46-2.53-1.45-2.98,0l-7.71,24.72c-.57,1.46-2.66,1.38-3.11-.12l-8.84-32.93c-.24-.8-1.38-.79-1.61.01l-9.2,32.67c-.34,1.13-1.31,1.09-1.63.02l-14.15-55.49c-.4-.53-2.08-.53-2.48.02l-13.61,45.3c-.46,1.34-1.73,2.23-3.14,2.22l-41.01-.15"/>
  </g>
  <g id="_レイヤー_2" data-name="レイヤー 2">
    <use transform="translate(696.52 90.76) scale(.11)" xlink:href="#image"/>
    <use transform="translate(729.26 90.76) scale(.11)" xlink:href="#image"/>
    <use transform="translate(762.61 90.76) scale(.11)" xlink:href="#image"/>
  </g>
</svg>